<?xml version="1.0" standalone="no"?>
<!DOCTYPE svg PUBLIC "-//W3C//DTD SVG 20010904//EN"
 "http://www.w3.org/TR/2001/REC-SVG-20010904/DTD/svg10.dtd">
<svg version="1.0" xmlns="http://www.w3.org/2000/svg"
 width="434.000000pt" height="251.000000pt" viewBox="0 0 434.000000 251.000000"
 preserveAspectRatio="xMidYMid meet">

<g transform="translate(0.000000,251.000000) scale(0.100000,-0.100000)"
fill="#000000" stroke="none">
<path d="M441 2363 c-22 -155 11 -298 89 -387 19 -21 71 -67 116 -102 148
-116 269 -272 373 -480 74 -149 107 -241 147 -409 44 -184 66 -243 116 -306
57 -72 157 -137 385 -249 113 -56 203 -103 201 -105 -2 -2 -30 3 -63 10 -79
19 -190 29 -205 20 -7 -5 22 -17 71 -30 165 -44 311 -113 437 -206 59 -45 62
-40 32 47 -22 63 -56 120 -99 168 l-26 29 35 -20 c19 -11 57 -33 84 -48 l49
-29 49 28 48 27 -30 -47 c-34 -54 -70 -144 -70 -175 0 -18 3 -17 38 10 111 89
286 174 442 214 53 14 87 28 80 32 -15 9 -126 -1 -205 -20 -33 -7 -62 -12 -64
-10 -2 2 92 51 208 109 232 115 278 144 350 216 59 59 94 129 117 230 55 249
98 373 191 550 104 198 225 346 391 475 74 57 123 120 147 190 21 59 31 200
20 282 l-8 58 -13 -70 c-19 -99 -63 -182 -136 -255 -72 -71 -142 -121 -348
-243 -155 -91 -190 -115 -250 -171 -22 -20 -42 -36 -45 -36 -3 0 -5 44 -5 98
l0 97 -175 100 c-97 55 -204 117 -238 138 -34 20 -78 45 -97 54 -19 10 -47 25
-61 35 -68 45 -322 188 -335 188 -13 0 -66 -25 -104 -50 -43 -28 -242 -140
-249 -140 -4 0 -16 -8 -25 -19 -9 -10 -54 -38 -99 -61 -90 -47 -404 -226 -424
-242 -9 -7 -13 -44 -13 -120 l0 -110 -63 59 c-71 66 -144 116 -330 224 -283
164 -394 291 -415 479 l-8 65 -13 -92z m2049 -343 c146 -84 307 -177 358 -207
l92 -54 0 -434 0 -435 -37 -24 c-21 -13 -110 -66 -198 -117 -88 -50 -242 -139
-342 -196 l-182 -105 -158 91 c-87 50 -257 148 -378 218 l-220 128 -3 436 -2
436 147 86 c611 354 616 357 638 343 11 -7 139 -82 285 -166z m-745 -1500 c6
0 20 -7 31 -15 15 -12 11 -12 -23 2 -23 8 -57 29 -75 45 l-33 29 44 -31 c24
-16 49 -30 56 -30z m855 -30 c-8 -5 -19 -10 -25 -10 -5 0 -3 5 5 10 8 5 20 10
25 10 6 0 3 -5 -5 -10z"/>
<path d="M1824 1857 l-279 -162 -3 -371 -2 -371 282 -163 c156 -90 286 -165
291 -167 4 -2 7 172 7 386 l0 391 -145 0 -146 0 3 -77 3 -78 63 -3 62 -3 0
-169 c0 -94 -2 -170 -5 -170 -3 0 -62 33 -130 72 l-125 73 3 280 2 280 125 72
125 72 5 -72 5 -72 78 -3 77 -3 0 211 c0 115 -4 210 -8 210 -5 0 -134 -73
-288 -163z"/>
<path d="M2240 1320 c0 -385 2 -700 4 -700 2 0 37 19 78 43 l73 44 3 266 2
267 130 0 130 0 0 -185 c0 -125 3 -185 11 -185 6 0 42 18 80 40 l69 41 0 372
0 372 -74 43 c-40 23 -76 42 -79 42 -4 0 -7 -86 -7 -190 l0 -191 -127 3 -128
3 -3 267 -2 266 -71 41 c-39 23 -75 41 -80 41 -5 0 -9 -285 -9 -700z"/>
<path d="M136 2294 c-9 -43 10 -188 35 -265 62 -189 195 -326 434 -450 185
-95 228 -124 338 -228 l49 -46 -27 60 c-83 190 -206 326 -440 489 -217 151
-314 261 -361 405 -20 63 -22 65 -28 35z"/>
<path d="M4182 2280 c-46 -152 -158 -282 -362 -420 -227 -154 -389 -338 -460
-524 -9 -24 1 -18 61 39 87 81 167 134 319 210 128 63 190 106 269 187 65 68
83 94 126 182 45 91 67 191 63 291 l-3 80 -13 -45z"/>
<path d="M160 1805 c0 -165 115 -352 267 -432 57 -30 105 -45 248 -79 90 -21
233 -88 313 -148 34 -25 62 -44 62 -41 0 3 -22 39 -49 79 -89 131 -193 213
-381 301 -203 94 -351 210 -442 344 l-18 26 0 -50z"/>
<path d="M4151 1815 c-38 -56 -150 -162 -229 -216 -40 -28 -128 -77 -195 -109
-206 -99 -300 -171 -387 -300 -60 -88 -59 -98 1 -50 81 65 235 134 369 166 63
15 143 39 177 55 74 33 161 111 213 191 43 65 83 198 78 258 l-3 40 -24 -35z"/>
<path d="M146 1489 c42 -122 143 -264 236 -334 110 -84 201 -113 433 -140 146
-17 191 -28 258 -62 l49 -24 -28 36 c-50 66 -157 154 -229 189 -38 19 -130 50
-204 70 -214 58 -389 150 -484 256 l-47 52 16 -43z"/>
<path d="M4170 1489 c-59 -73 -197 -163 -339 -218 -26 -11 -101 -33 -167 -50
-65 -17 -151 -47 -189 -66 -72 -35 -170 -115 -225 -185 l-32 -40 62 29 c63 30
102 38 312 66 143 19 202 36 290 82 79 41 188 150 240 239 32 56 91 184 84
184 -1 0 -17 -18 -36 -41z"/>
<path d="M307 1077 c35 -63 129 -146 205 -182 86 -41 149 -51 393 -65 99 -6
196 -13 215 -16 l35 -5 -25 20 c-101 81 -216 123 -417 151 -176 24 -264 47
-356 94 l-67 34 17 -31z"/>
<path d="M4005 1085 c-66 -41 -211 -82 -371 -104 -206 -29 -331 -73 -419 -147
l-30 -26 30 6 c17 3 109 10 205 16 237 13 275 18 348 41 107 35 200 109 267
212 21 33 20 33 -30 2z"/>
<path d="M774 676 c-39 -17 -48 -30 -40 -61 15 -58 100 -73 216 -37 36 11 117
25 180 32 l115 13 -39 14 c-134 46 -367 67 -432 39z"/>
<path d="M3265 670 c-49 -11 -108 -25 -130 -33 l-40 -14 115 -13 c63 -7 144
-21 180 -33 125 -39 210 -20 210 49 0 31 -4 37 -35 50 -48 20 -189 17 -300 -6z"/>
<path d="M1065 545 c-139 -22 -174 -49 -133 -100 19 -25 26 -27 70 -23 34 4
59 14 86 35 51 41 86 58 161 76 35 9 66 19 69 22 10 10 -173 3 -253 -10z"/>
<path d="M3010 556 c0 -2 35 -12 77 -22 58 -13 95 -30 148 -66 79 -54 137 -64
168 -30 48 52 3 87 -138 108 -82 13 -255 19 -255 10z"/>
<path d="M1273 490 c-55 -11 -120 -45 -133 -71 -31 -56 21 -115 76 -87 15 7
35 27 44 45 34 65 53 85 93 104 l42 19 -40 -1 c-22 -1 -59 -5 -82 -9z"/>
<path d="M2986 482 c31 -15 51 -36 78 -81 47 -76 64 -86 111 -67 27 12 35 21
35 41 0 15 -5 35 -11 47 -16 30 -109 67 -186 73 l-68 6 41 -19z"/>
</g>
</svg>
